<?xml version="1.0" encoding="UTF-8"?>
<svg width="90.04" height="90.04" fill-rule="evenodd" image-rendering="optimizeQuality" shape-rendering="geometricPrecision" text-rendering="geometricPrecision" viewBox="0 0 15.9763 15.9763" xmlns="http://www.w3.org/2000/svg">
 <path d="m4.2159 1.701h7.5445c1.3852 0 2.5148 1.1297 2.5148 2.5148v7.5445c0 1.3852-1.1297 2.5148-2.5148 2.5148h-7.5445c-1.3852 0-2.5148-1.1297-2.5148-2.5148v-7.5445c0-1.3852 1.1297-2.5148 2.5148-2.5148z" fill="#4d4948" stroke="#4d4948" stroke-width=".22175"/>
 <path d="m5.4733 4.2159h5.0297c0.69259 0 1.2574 0.56483 1.2574 1.2574v5.0297c0 0.69259-0.56483 1.2574-1.2574 1.2574h-5.0297c-0.69259 0-1.2574-0.56483-1.2574-1.2574v-5.0297c0-0.69259 0.56483-1.2574 1.2574-1.2574z" fill="#b6ddc7" stroke="#00923f" stroke-width=".88717"/>
 <path d="m1.701 10.503h-1.2574" fill="none" stroke="#e77817" stroke-linecap="round" stroke-width=".88717"/>
 <path d="m1.701 9.2446h-1.2574" fill="none" stroke="#e77817" stroke-linecap="round" stroke-width=".88717"/>
 <path d="m1.701 6.7307h-1.2574" fill="none" stroke="#e77817" stroke-linecap="round" stroke-width=".88717"/>
 <path d="m1.701 7.9871h-1.2574" fill="none" stroke="#e77817" stroke-linecap="round" stroke-width=".88717"/>
 <path d="m1.701 5.4723h-1.2574" fill="none" stroke="#e77817" stroke-linecap="round" stroke-width=".88717"/>
 <path d="m1.701 4.2149h-1.2574" fill="none" stroke="#e77817" stroke-linecap="round" stroke-width=".88717"/>
 <path d="m1.701 11.76h-1.2574" fill="none" stroke="#e77817" stroke-linecap="round" stroke-width=".88717"/>
 <path d="m15.533 10.503h-1.2575" fill="none" stroke="#e77817" stroke-linecap="round" stroke-width=".88717"/>
 <path d="m15.533 9.2446h-1.2575" fill="none" stroke="#e77817" stroke-linecap="round" stroke-width=".88717"/>
 <path d="m15.533 6.7307h-1.2575" fill="none" stroke="#e77817" stroke-linecap="round" stroke-width=".88717"/>
 <path d="m15.533 7.9871h-1.2575" fill="none" stroke="#e77817" stroke-linecap="round" stroke-width=".88717"/>
 <path d="m15.533 5.4723h-1.2575" fill="none" stroke="#e77817" stroke-linecap="round" stroke-width=".88717"/>
 <path d="m15.533 4.2149h-1.2575" fill="none" stroke="#e77817" stroke-linecap="round" stroke-width=".88717"/>
 <path d="m15.533 11.76h-1.2575" fill="none" stroke="#e77817" stroke-linecap="round" stroke-width=".88717"/>
 <path d="m5.4733 15.533v-1.2575" fill="none" stroke="#e77817" stroke-linecap="round" stroke-width=".88717"/>
 <path d="m6.7317 15.533v-1.2575" fill="none" stroke="#e77817" stroke-linecap="round" stroke-width=".88717"/>
 <path d="m9.2456 15.533v-1.2575" fill="none" stroke="#e77817" stroke-linecap="round" stroke-width=".88717"/>
 <path d="m7.9891 15.533v-1.2575" fill="none" stroke="#e77817" stroke-linecap="round" stroke-width=".88717"/>
 <path d="m10.504 15.533v-1.2575" fill="none" stroke="#e77817" stroke-linecap="round" stroke-width=".88717"/>
 <path d="m11.761 15.533v-1.2575" fill="none" stroke="#e77817" stroke-linecap="round" stroke-width=".88717"/>
 <path d="m4.2164 15.533v-1.2575" fill="none" stroke="#e77817" stroke-linecap="round" stroke-width=".88717"/>
 <path d="m5.4728 1.701v-1.2574" fill="none" stroke="#e77817" stroke-linecap="round" stroke-width=".88717"/>
 <path d="m6.7312 1.701v-1.2574" fill="none" stroke="#e77817" stroke-linecap="round" stroke-width=".88717"/>
 <path d="m9.245 1.701v-1.2574" fill="none" stroke="#e77817" stroke-linecap="round" stroke-width=".88717"/>
 <path d="m7.9886 1.701v-1.2574" fill="none" stroke="#e77817" stroke-linecap="round" stroke-width=".88717"/>
 <path d="m10.504 1.701v-1.2574" fill="none" stroke="#e77817" stroke-linecap="round" stroke-width=".88717"/>
 <path d="m11.761 1.701v-1.2574" fill="none" stroke="#e77817" stroke-linecap="round" stroke-width=".88717"/>
 <path d="m4.2159 1.701v-1.2574" fill="none" stroke="#e77817" stroke-linecap="round" stroke-width=".88717"/>
</svg>
